<svg xmlns="http://www.w3.org/2000/svg" width="500.000000" height="500.000000" viewBox="-1.154701 -1.577350 4.309401 4.309401">
<g stroke-width="0.008619">
<circle cx="1.000000" cy="0.577350" r="2.154701" fill="none" stroke="black"/>
<circle cx="0.000000" cy="0.000000" r="1.000000" fill="none" stroke="black"/>
<circle cx="2.000000" cy="0.000000" r="1.000000" fill="none" stroke="black"/>
<circle cx="1.000000" cy="1.732051" r="1.000000" fill="none" stroke="black"/>
<circle cx="1.000000" cy="0.577350" r="0.154701" fill="none" stroke="black"/>
<circle cx="1.188345" cy="0.686091" r="0.062782" fill="none" stroke="black"/>
<circle cx="0.811655" cy="0.686091" r="0.062782" fill="none" stroke="black"/>
<circle cx="1.000000" cy="0.359868" r="0.062782" fill="none" stroke="black"/>
<circle cx="1.272180" cy="0.734494" r="0.034023" fill="none" stroke="black"/>
<circle cx="1.109207" cy="0.716062" r="0.021841" fill="none" stroke="black"/>
<circle cx="1.174731" cy="0.602571" r="0.021841" fill="none" stroke="black"/>
<circle cx="1.320127" cy="0.762176" r="0.021342" fill="none" stroke="black"/>
<circle cx="1.229155" cy="0.747454" r="0.010912" fill="none" stroke="black"/>
<circle cx="1.261891" cy="0.690753" r="0.010912" fill="none" stroke="black"/>
<circle cx="1.351285" cy="0.780165" r="0.014637" fill="none" stroke="black"/>
<circle cx="1.077289" cy="0.723968" r="0.011041" fill="none" stroke="black"/>
<circle cx="1.165619" cy="0.570976" r="0.011041" fill="none" stroke="black"/>
<circle cx="0.727820" cy="0.734494" r="0.034023" fill="none" stroke="black"/>
<circle cx="0.890793" cy="0.716062" r="0.021841" fill="none" stroke="black"/>
<circle cx="0.825269" cy="0.602571" r="0.021841" fill="none" stroke="black"/>
<circle cx="0.679873" cy="0.762176" r="0.021342" fill="none" stroke="black"/>
<circle cx="0.770845" cy="0.747454" r="0.010912" fill="none" stroke="black"/>
<circle cx="0.738109" cy="0.690753" r="0.010912" fill="none" stroke="black"/>
<circle cx="0.648715" cy="0.780165" r="0.014637" fill="none" stroke="black"/>
<circle cx="0.922711" cy="0.723968" r="0.011041" fill="none" stroke="black"/>
<circle cx="0.834381" cy="0.570976" r="0.011041" fill="none" stroke="black"/>
<circle cx="1.000000" cy="0.263064" r="0.034023" fill="none" stroke="black"/>
<circle cx="1.065524" cy="0.413418" r="0.021841" fill="none" stroke="black"/>
<circle cx="0.934476" cy="0.413418" r="0.021841" fill="none" stroke="black"/>
<circle cx="1.000000" cy="0.207699" r="0.021342" fill="none" stroke="black"/>
<circle cx="1.032736" cy="0.293844" r="0.010912" fill="none" stroke="black"/>
<circle cx="0.967264" cy="0.293844" r="0.010912" fill="none" stroke="black"/>
<circle cx="1.000000" cy="0.171721" r="0.014637" fill="none" stroke="black"/>
<circle cx="1.088330" cy="0.437107" r="0.011041" fill="none" stroke="black"/>
<circle cx="0.911670" cy="0.437107" r="0.011041" fill="none" stroke="black"/>
<circle cx="2.448018" cy="1.413364" r="0.482673" fill="none" stroke="black"/>
<circle cx="-0.448018" cy="1.413364" r="0.482673" fill="none" stroke="black"/>
<circle cx="1.000000" cy="-1.094677" r="0.482673" fill="none" stroke="black"/>
<circle cx="1.929401" cy="1.113940" r="0.116175" fill="none" stroke="black"/>
<circle cx="2.186130" cy="2.083937" r="0.237226" fill="none" stroke="black"/>
<circle cx="2.897808" cy="0.851275" r="0.237226" fill="none" stroke="black"/>
<circle cx="1.783552" cy="1.029734" r="0.052237" fill="none" stroke="black"/>
<circle cx="1.939220" cy="1.274540" r="0.044725" fill="none" stroke="black"/>
<circle cx="2.073394" cy="1.042144" r="0.044725" fill="none" stroke="black"/>
<circle cx="1.712600" cy="0.988770" r="0.029692" fill="none" stroke="black"/>
<circle cx="1.796424" cy="1.098475" r="0.017698" fill="none" stroke="black"/>
<circle cx="1.849519" cy="1.006511" r="0.017698" fill="none" stroke="black"/>
<circle cx="1.670300" cy="0.964348" r="0.019151" fill="none" stroke="black"/>
<circle cx="1.642129" cy="0.948084" r="0.013378" fill="none" stroke="black"/>
<circle cx="1.946659" cy="1.342526" r="0.023666" fill="none" stroke="black"/>
<circle cx="1.889082" cy="1.239989" r="0.016165" fill="none" stroke="black"/>
<circle cx="1.983451" cy="1.233864" r="0.015366" fill="none" stroke="black"/>
<circle cx="1.951790" cy="1.380490" r="0.014643" fill="none" stroke="black"/>
<circle cx="2.135991" cy="1.014593" r="0.023666" fill="none" stroke="black"/>
<circle cx="2.018403" cy="1.015998" r="0.016165" fill="none" stroke="black"/>
<circle cx="2.060283" cy="1.100787" r="0.015366" fill="none" stroke="black"/>
<circle cx="2.171434" cy="1.000055" r="0.014643" fill="none" stroke="black"/>
<circle cx="1.942028" cy="2.364384" r="0.134575" fill="none" stroke="black"/>
<circle cx="2.063938" cy="1.805880" r="0.066496" fill="none" stroke="black"/>
<circle cx="2.502888" cy="1.987351" r="0.093930" fill="none" stroke="black"/>
<circle cx="1.768051" cy="2.498900" r="0.085339" fill="none" stroke="black"/>
<circle cx="1.931806" cy="2.191285" r="0.038825" fill="none" stroke="black"/>
<circle cx="2.123378" cy="2.360952" r="0.046807" fill="none" stroke="black"/>
<circle cx="1.644143" cy="2.572066" r="0.058558" fill="none" stroke="black"/>
<circle cx="1.785053" cy="2.390352" r="0.024533" fill="none" stroke="black"/>
<circle cx="1.879863" cy="2.514059" r="0.027496" fill="none" stroke="black"/>
<circle cx="1.553010" cy="2.615832" r="0.042539" fill="none" stroke="black"/>
<circle cx="1.666068" cy="2.500123" r="0.016652" fill="none" stroke="black"/>
<circle cx="1.718628" cy="2.589615" r="0.017966" fill="none" stroke="black"/>
<circle cx="1.483710" cy="2.643949" r="0.032247" fill="none" stroke="black"/>
<circle cx="1.573933" cy="2.565512" r="0.011957" fill="none" stroke="black"/>
<circle cx="1.605746" cy="2.631999" r="0.012620" fill="none" stroke="black"/>
<circle cx="1.429459" cy="2.663033" r="0.025262" fill="none" stroke="black"/>
<circle cx="1.385937" cy="2.676556" r="0.020312" fill="none" stroke="black"/>
<circle cx="1.350299" cy="2.686478" r="0.016681" fill="none" stroke="black"/>
<circle cx="1.320608" cy="2.693967" r="0.013939" fill="none" stroke="black"/>
<circle cx="1.295508" cy="2.699757" r="0.011820" fill="none" stroke="black"/>
<circle cx="1.796153" cy="2.356031" r="0.011538" fill="none" stroke="black"/>
<circle cx="1.920565" cy="2.510736" r="0.013342" fill="none" stroke="black"/>
<circle cx="1.854063" cy="2.543150" r="0.011388" fill="none" stroke="black"/>
<circle cx="1.935559" cy="2.134239" r="0.018344" fill="none" stroke="black"/>
<circle cx="1.888417" cy="2.224119" r="0.015586" fill="none" stroke="black"/>
<circle cx="1.975541" cy="2.220100" r="0.013549" fill="none" stroke="black"/>
<circle cx="2.191587" cy="2.344471" r="0.023364" fill="none" stroke="black"/>
<circle cx="2.086827" cy="2.415756" r="0.019067" fill="none" stroke="black"/>
<circle cx="2.082956" cy="2.314141" r="0.015041" fill="none" stroke="black"/>
<circle cx="2.226676" cy="2.331809" r="0.013939" fill="none" stroke="black"/>
<circle cx="2.031084" cy="1.713826" r="0.031245" fill="none" stroke="black"/>
<circle cx="2.014675" cy="1.884187" r="0.026017" fill="none" stroke="black"/>
<circle cx="2.152424" cy="1.824886" r="0.024009" fill="none" stroke="black"/>
<circle cx="2.016049" cy="1.666781" r="0.018144" fill="none" stroke="black"/>
<circle cx="2.007476" cy="1.638036" r="0.011853" fill="none" stroke="black"/>
<circle cx="1.996344" cy="1.919576" r="0.013838" fill="none" stroke="black"/>
<circle cx="2.187552" cy="1.834345" r="0.012370" fill="none" stroke="black"/>
<circle cx="2.626229" cy="1.914577" r="0.049280" fill="none" stroke="black"/>
<circle cx="2.459410" cy="2.111298" r="0.037421" fill="none" stroke="black"/>
<circle cx="2.398161" cy="1.922731" r="0.029128" fill="none" stroke="black"/>
<circle cx="2.689092" cy="1.866005" r="0.030162" fill="none" stroke="black"/>
<circle cx="2.613533" cy="1.979614" r="0.016985" fill="none" stroke="black"/>
<circle cx="2.564269" cy="1.897311" r="0.015041" fill="none" stroke="black"/>
<circle cx="2.726560" cy="1.832183" r="0.020312" fill="none" stroke="black"/>
<circle cx="2.751232" cy="1.807490" r="0.014594" fill="none" stroke="black"/>
<circle cx="2.768630" cy="1.788740" r="0.010985" fill="none" stroke="black"/>
<circle cx="2.431336" cy="2.161250" r="0.019880" fill="none" stroke="black"/>
<circle cx="2.508729" cy="2.095493" r="0.014369" fill="none" stroke="black"/>
<circle cx="2.434832" cy="2.068472" r="0.011957" fill="none" stroke="black"/>
<circle cx="2.413041" cy="2.187707" r="0.012287" fill="none" stroke="black"/>
<circle cx="2.359969" cy="1.902339" r="0.014166" fill="none" stroke="black"/>
<circle cx="2.435212" cy="1.906997" r="0.011126" fill="none" stroke="black"/>
<circle cx="3.018630" cy="0.499653" r="0.134575" fill="none" stroke="black"/>
<circle cx="2.595906" cy="0.884483" r="0.066496" fill="none" stroke="black"/>
<circle cx="2.972540" cy="1.173889" r="0.093930" fill="none" stroke="black"/>
<circle cx="3.048137" cy="0.281727" r="0.085339" fill="none" stroke="black"/>
<circle cx="2.863611" cy="0.577350" r="0.038825" fill="none" stroke="black"/>
<circle cx="3.106333" cy="0.658423" r="0.046807" fill="none" stroke="black"/>
<circle cx="3.049546" cy="0.137837" r="0.058558" fill="none" stroke="black"/>
<circle cx="2.962632" cy="0.350725" r="0.024533" fill="none" stroke="black"/>
<circle cx="3.117171" cy="0.370980" r="0.027496" fill="none" stroke="black"/>
<circle cx="3.041881" cy="0.037030" r="0.042539" fill="none" stroke="black"/>
<circle cx="2.998204" cy="0.192796" r="0.016652" fill="none" stroke="black"/>
<circle cx="3.101986" cy="0.193568" r="0.017966" fill="none" stroke="black"/>
<circle cx="3.031582" cy="-0.037044" r="0.032247" fill="none" stroke="black"/>
<circle cx="3.008765" cy="0.080310" r="0.011957" fill="none" stroke="black"/>
<circle cx="3.082251" cy="0.074617" r="0.012620" fill="none" stroke="black"/>
<circle cx="3.020984" cy="-0.093569" r="0.025262" fill="none" stroke="black"/>
<circle cx="3.010934" cy="-0.138022" r="0.020312" fill="none" stroke="black"/>
<circle cx="3.001707" cy="-0.173846" r="0.016681" fill="none" stroke="black"/>
<circle cx="2.993348" cy="-0.203303" r="0.013939" fill="none" stroke="black"/>
<circle cx="2.985812" cy="-0.227936" r="0.011820" fill="none" stroke="black"/>
<circle cx="2.938459" cy="0.377499" r="0.011538" fill="none" stroke="black"/>
<circle cx="3.134643" cy="0.407890" r="0.013342" fill="none" stroke="black"/>
<circle cx="3.129464" cy="0.334091" r="0.011388" fill="none" stroke="black"/>
<circle cx="2.816084" cy="0.609124" r="0.018344" fill="none" stroke="black"/>
<circle cx="2.870352" cy="0.523358" r="0.015586" fill="none" stroke="black"/>
<circle cx="2.910434" cy="0.600818" r="0.013549" fill="none" stroke="black"/>
<circle cx="3.126165" cy="0.725734" r="0.023364" fill="none" stroke="black"/>
<circle cx="3.135520" cy="0.599367" r="0.019067" fill="none" stroke="black"/>
<circle cx="3.045583" cy="0.646822" r="0.015041" fill="none" stroke="black"/>
<circle cx="3.132743" cy="0.762454" r="0.013939" fill="none" stroke="black"/>
<circle cx="2.499758" cy="0.902057" r="0.031245" fill="none" stroke="black"/>
<circle cx="2.639091" cy="0.802667" r="0.026017" fill="none" stroke="black"/>
<circle cx="2.656610" cy="0.951611" r="0.024009" fill="none" stroke="black"/>
<circle cx="2.451499" cy="0.912560" r="0.018144" fill="none" stroke="black"/>
<circle cx="2.422318" cy="0.919507" r="0.011853" fill="none" stroke="black"/>
<circle cx="2.660574" cy="0.769097" r="0.013838" fill="none" stroke="black"/>
<circle cx="2.682366" cy="0.977303" r="0.012370" fill="none" stroke="black"/>
<circle cx="2.971187" cy="1.317093" r="0.049280" fill="none" stroke="black"/>
<circle cx="3.058143" cy="1.074263" r="0.037421" fill="none" stroke="black"/>
<circle cx="2.864214" cy="1.115503" r="0.029128" fill="none" stroke="black"/>
<circle cx="2.960553" cy="1.395820" r="0.030162" fill="none" stroke="black"/>
<circle cx="3.021162" cy="1.273579" r="0.016985" fill="none" stroke="black"/>
<circle cx="2.925254" cy="1.272067" r="0.015041" fill="none" stroke="black"/>
<circle cx="2.949997" cy="1.445178" r="0.020312" fill="none" stroke="black"/>
<circle cx="2.940949" cy="1.478891" r="0.014594" fill="none" stroke="black"/>
<circle cx="2.933409" cy="1.503334" r="0.010985" fill="none" stroke="black"/>
<circle cx="3.087365" cy="1.024974" r="0.019880" fill="none" stroke="black"/>
<circle cx="3.069114" cy="1.124877" r="0.014369" fill="none" stroke="black"/>
<circle cx="3.008765" cy="1.074391" r="0.011957" fill="none" stroke="black"/>
<circle cx="3.101131" cy="0.995901" r="0.012287" fill="none" stroke="black"/>
<circle cx="2.827458" cy="1.092624" r="0.014166" fill="none" stroke="black"/>
<circle cx="2.869114" cy="1.155457" r="0.011126" fill="none" stroke="black"/>
<circle cx="0.070599" cy="1.113940" r="0.116175" fill="none" stroke="black"/>
<circle cx="-0.186130" cy="2.083937" r="0.237226" fill="none" stroke="black"/>
<circle cx="-0.897808" cy="0.851275" r="0.237226" fill="none" stroke="black"/>
<circle cx="0.216448" cy="1.029734" r="0.052237" fill="none" stroke="black"/>
<circle cx="0.060780" cy="1.274540" r="0.044725" fill="none" stroke="black"/>
<circle cx="-0.073394" cy="1.042144" r="0.044725" fill="none" stroke="black"/>
<circle cx="0.287400" cy="0.988770" r="0.029692" fill="none" stroke="black"/>
<circle cx="0.203576" cy="1.098475" r="0.017698" fill="none" stroke="black"/>
<circle cx="0.150481" cy="1.006511" r="0.017698" fill="none" stroke="black"/>
<circle cx="0.329700" cy="0.964348" r="0.019151" fill="none" stroke="black"/>
<circle cx="0.357871" cy="0.948084" r="0.013378" fill="none" stroke="black"/>
<circle cx="0.053341" cy="1.342526" r="0.023666" fill="none" stroke="black"/>
<circle cx="0.110918" cy="1.239989" r="0.016165" fill="none" stroke="black"/>
<circle cx="0.016549" cy="1.233864" r="0.015366" fill="none" stroke="black"/>
<circle cx="0.048210" cy="1.380490" r="0.014643" fill="none" stroke="black"/>
<circle cx="-0.135991" cy="1.014593" r="0.023666" fill="none" stroke="black"/>
<circle cx="-0.018403" cy="1.015998" r="0.016165" fill="none" stroke="black"/>
<circle cx="-0.060283" cy="1.100787" r="0.015366" fill="none" stroke="black"/>
<circle cx="-0.171434" cy="1.000055" r="0.014643" fill="none" stroke="black"/>
<circle cx="0.057972" cy="2.364384" r="0.134575" fill="none" stroke="black"/>
<circle cx="-0.063938" cy="1.805880" r="0.066496" fill="none" stroke="black"/>
<circle cx="-0.502888" cy="1.987351" r="0.093930" fill="none" stroke="black"/>
<circle cx="0.231949" cy="2.498900" r="0.085339" fill="none" stroke="black"/>
<circle cx="0.068194" cy="2.191285" r="0.038825" fill="none" stroke="black"/>
<circle cx="-0.123378" cy="2.360952" r="0.046807" fill="none" stroke="black"/>
<circle cx="0.355857" cy="2.572066" r="0.058558" fill="none" stroke="black"/>
<circle cx="0.214947" cy="2.390352" r="0.024533" fill="none" stroke="black"/>
<circle cx="0.120137" cy="2.514059" r="0.027496" fill="none" stroke="black"/>
<circle cx="0.446990" cy="2.615832" r="0.042539" fill="none" stroke="black"/>
<circle cx="0.333932" cy="2.500123" r="0.016652" fill="none" stroke="black"/>
<circle cx="0.281372" cy="2.589615" r="0.017966" fill="none" stroke="black"/>
<circle cx="0.516290" cy="2.643949" r="0.032247" fill="none" stroke="black"/>
<circle cx="0.426067" cy="2.565512" r="0.011957" fill="none" stroke="black"/>
<circle cx="0.394254" cy="2.631999" r="0.012620" fill="none" stroke="black"/>
<circle cx="0.570541" cy="2.663033" r="0.025262" fill="none" stroke="black"/>
<circle cx="0.614063" cy="2.676556" r="0.020312" fill="none" stroke="black"/>
<circle cx="0.649701" cy="2.686478" r="0.016681" fill="none" stroke="black"/>
<circle cx="0.679392" cy="2.693967" r="0.013939" fill="none" stroke="black"/>
<circle cx="0.704492" cy="2.699757" r="0.011820" fill="none" stroke="black"/>
<circle cx="0.203847" cy="2.356031" r="0.011538" fill="none" stroke="black"/>
<circle cx="0.079435" cy="2.510736" r="0.013342" fill="none" stroke="black"/>
<circle cx="0.145937" cy="2.543150" r="0.011388" fill="none" stroke="black"/>
<circle cx="0.064441" cy="2.134239" r="0.018344" fill="none" stroke="black"/>
<circle cx="0.111583" cy="2.224119" r="0.015586" fill="none" stroke="black"/>
<circle cx="0.024459" cy="2.220100" r="0.013549" fill="none" stroke="black"/>
<circle cx="-0.191587" cy="2.344471" r="0.023364" fill="none" stroke="black"/>
<circle cx="-0.086827" cy="2.415756" r="0.019067" fill="none" stroke="black"/>
<circle cx="-0.082956" cy="2.314141" r="0.015041" fill="none" stroke="black"/>
<circle cx="-0.226676" cy="2.331809" r="0.013939" fill="none" stroke="black"/>
<circle cx="-0.031084" cy="1.713826" r="0.031245" fill="none" stroke="black"/>
<circle cx="-0.014675" cy="1.884187" r="0.026017" fill="none" stroke="black"/>
<circle cx="-0.152424" cy="1.824886" r="0.024009" fill="none" stroke="black"/>
<circle cx="-0.016049" cy="1.666781" r="0.018144" fill="none" stroke="black"/>
<circle cx="-0.007476" cy="1.638036" r="0.011853" fill="none" stroke="black"/>
<circle cx="0.003656" cy="1.919576" r="0.013838" fill="none" stroke="black"/>
<circle cx="-0.187552" cy="1.834345" r="0.012370" fill="none" stroke="black"/>
<circle cx="-0.626229" cy="1.914577" r="0.049280" fill="none" stroke="black"/>
<circle cx="-0.459410" cy="2.111298" r="0.037421" fill="none" stroke="black"/>
<circle cx="-0.398161" cy="1.922731" r="0.029128" fill="none" stroke="black"/>
<circle cx="-0.689092" cy="1.866005" r="0.030162" fill="none" stroke="black"/>
<circle cx="-0.613533" cy="1.979614" r="0.016985" fill="none" stroke="black"/>
<circle cx="-0.564269" cy="1.897311" r="0.015041" fill="none" stroke="black"/>
<circle cx="-0.726560" cy="1.832183" r="0.020312" fill="none" stroke="black"/>
<circle cx="-0.751232" cy="1.807490" r="0.014594" fill="none" stroke="black"/>
<circle cx="-0.768630" cy="1.788740" r="0.010985" fill="none" stroke="black"/>
<circle cx="-0.431336" cy="2.161250" r="0.019880" fill="none" stroke="black"/>
<circle cx="-0.508729" cy="2.095493" r="0.014369" fill="none" stroke="black"/>
<circle cx="-0.434832" cy="2.068472" r="0.011957" fill="none" stroke="black"/>
<circle cx="-0.413041" cy="2.187707" r="0.012287" fill="none" stroke="black"/>
<circle cx="-0.359969" cy="1.902339" r="0.014166" fill="none" stroke="black"/>
<circle cx="-0.435212" cy="1.906997" r="0.011126" fill="none" stroke="black"/>
<circle cx="-1.018630" cy="0.499653" r="0.134575" fill="none" stroke="black"/>
<circle cx="-0.595906" cy="0.884483" r="0.066496" fill="none" stroke="black"/>
<circle cx="-0.972540" cy="1.173889" r="0.093930" fill="none" stroke="black"/>
<circle cx="-1.048137" cy="0.281727" r="0.085339" fill="none" stroke="black"/>
<circle cx="-0.863611" cy="0.577350" r="0.038825" fill="none" stroke="black"/>
<circle cx="-1.106333" cy="0.658423" r="0.046807" fill="none" stroke="black"/>
<circle cx="-1.049546" cy="0.137837" r="0.058558" fill="none" stroke="black"/>
<circle cx="-0.962632" cy="0.350725" r="0.024533" fill="none" stroke="black"/>
<circle cx="-1.117171" cy="0.370980" r="0.027496" fill="none" stroke="black"/>
<circle cx="-1.041881" cy="0.037030" r="0.042539" fill="none" stroke="black"/>
<circle cx="-0.998204" cy="0.192796" r="0.016652" fill="none" stroke="black"/>
<circle cx="-1.101986" cy="0.193568" r="0.017966" fill="none" stroke="black"/>
<circle cx="-1.031582" cy="-0.037044" r="0.032247" fill="none" stroke="black"/>
<circle cx="-1.008765" cy="0.080310" r="0.011957" fill="none" stroke="black"/>
<circle cx="-1.082251" cy="0.074617" r="0.012620" fill="none" stroke="black"/>
<circle cx="-1.020984" cy="-0.093569" r="0.025262" fill="none" stroke="black"/>
<circle cx="-1.010934" cy="-0.138022" r="0.020312" fill="none" stroke="black"/>
<circle cx="-1.001707" cy="-0.173846" r="0.016681" fill="none" stroke="black"/>
<circle cx="-0.993348" cy="-0.203303" r="0.013939" fill="none" stroke="black"/>
<circle cx="-0.985812" cy="-0.227936" r="0.011820" fill="none" stroke="black"/>
<circle cx="-0.938459" cy="0.377499" r="0.011538" fill="none" stroke="black"/>
<circle cx="-1.134643" cy="0.407890" r="0.013342" fill="none" stroke="black"/>
<circle cx="-1.129464" cy="0.334091" r="0.011388" fill="none" stroke="black"/>
<circle cx="-0.816084" cy="0.609124" r="0.018344" fill="none" stroke="black"/>
<circle cx="-0.870352" cy="0.523358" r="0.015586" fill="none" stroke="black"/>
<circle cx="-0.910434" cy="0.600818" r="0.013549" fill="none" stroke="black"/>
<circle cx="-1.126165" cy="0.725734" r="0.023364" fill="none" stroke="black"/>
<circle cx="-1.135520" cy="0.599367" r="0.019067" fill="none" stroke="black"/>
<circle cx="-1.045583" cy="0.646822" r="0.015041" fill="none" stroke="black"/>
<circle cx="-1.132743" cy="0.762454" r="0.013939" fill="none" stroke="black"/>
<circle cx="-0.499758" cy="0.902057" r="0.031245" fill="none" stroke="black"/>
<circle cx="-0.639091" cy="0.802667" r="0.026017" fill="none" stroke="black"/>
<circle cx="-0.656610" cy="0.951611" r="0.024009" fill="none" stroke="black"/>
<circle cx="-0.451499" cy="0.912560" r="0.018144" fill="none" stroke="black"/>
<circle cx="-0.422318" cy="0.919507" r="0.011853" fill="none" stroke="black"/>
<circle cx="-0.660574" cy="0.769097" r="0.013838" fill="none" stroke="black"/>
<circle cx="-0.682366" cy="0.977303" r="0.012370" fill="none" stroke="black"/>
<circle cx="-0.971187" cy="1.317093" r="0.049280" fill="none" stroke="black"/>
<circle cx="-1.058143" cy="1.074263" r="0.037421" fill="none" stroke="black"/>
<circle cx="-0.864214" cy="1.115503" r="0.029128" fill="none" stroke="black"/>
<circle cx="-0.960553" cy="1.395820" r="0.030162" fill="none" stroke="black"/>
<circle cx="-1.021162" cy="1.273579" r="0.016985" fill="none" stroke="black"/>
<circle cx="-0.925254" cy="1.272067" r="0.015041" fill="none" stroke="black"/>
<circle cx="-0.949997" cy="1.445178" r="0.020312" fill="none" stroke="black"/>
<circle cx="-0.940949" cy="1.478891" r="0.014594" fill="none" stroke="black"/>
<circle cx="-0.933409" cy="1.503334" r="0.010985" fill="none" stroke="black"/>
<circle cx="-1.087365" cy="1.024974" r="0.019880" fill="none" stroke="black"/>
<circle cx="-1.069114" cy="1.124877" r="0.014369" fill="none" stroke="black"/>
<circle cx="-1.008765" cy="1.074391" r="0.011957" fill="none" stroke="black"/>
<circle cx="-1.101131" cy="0.995901" r="0.012287" fill="none" stroke="black"/>
<circle cx="-0.827458" cy="1.092624" r="0.014166" fill="none" stroke="black"/>
<circle cx="-0.869114" cy="1.155457" r="0.011126" fill="none" stroke="black"/>
<circle cx="1.000000" cy="-0.495830" r="0.116175" fill="none" stroke="black"/>
<circle cx="1.711678" cy="-1.203162" r="0.237226" fill="none" stroke="black"/>
<circle cx="0.288322" cy="-1.203162" r="0.237226" fill="none" stroke="black"/>
<circle cx="1.000000" cy="-0.327418" r="0.052237" fill="none" stroke="black"/>
<circle cx="1.134174" cy="-0.584633" r="0.044725" fill="none" stroke="black"/>
<circle cx="0.865826" cy="-0.584633" r="0.044725" fill="none" stroke="black"/>
<circle cx="1.000000" cy="-0.245489" r="0.029692" fill="none" stroke="black"/>
<circle cx="1.053095" cy="-0.372935" r="0.017698" fill="none" stroke="black"/>
<circle cx="0.946905" cy="-0.372935" r="0.017698" fill="none" stroke="black"/>
<circle cx="1.000000" cy="-0.196646" r="0.019151" fill="none" stroke="black"/>
<circle cx="1.000000" cy="-0.164117" r="0.013378" fill="none" stroke="black"/>
<circle cx="1.189332" cy="-0.625068" r="0.023666" fill="none" stroke="black"/>
<circle cx="1.129321" cy="-0.523937" r="0.016165" fill="none" stroke="black"/>
<circle cx="1.076832" cy="-0.602600" r="0.015366" fill="none" stroke="black"/>
<circle cx="1.219644" cy="-0.648494" r="0.014643" fill="none" stroke="black"/>
<circle cx="0.810668" cy="-0.625068" r="0.023666" fill="none" stroke="black"/>
<circle cx="0.870679" cy="-0.523937" r="0.016165" fill="none" stroke="black"/>
<circle cx="0.923168" cy="-0.602600" r="0.015366" fill="none" stroke="black"/>
<circle cx="0.780356" cy="-0.648494" r="0.014643" fill="none" stroke="black"/>
<circle cx="2.076603" cy="-1.131986" r="0.134575" fill="none" stroke="black"/>
<circle cx="1.531969" cy="-0.958311" r="0.066496" fill="none" stroke="black"/>
<circle cx="1.469652" cy="-1.429189" r="0.093930" fill="none" stroke="black"/>
<circle cx="2.280085" cy="-1.048577" r="0.085339" fill="none" stroke="black"/>
<circle cx="1.931806" cy="-1.036584" r="0.038825" fill="none" stroke="black"/>
<circle cx="1.982956" cy="-1.287324" r="0.046807" fill="none" stroke="black"/>
<circle cx="2.405403" cy="-0.977852" r="0.058558" fill="none" stroke="black"/>
<circle cx="2.177579" cy="-1.009026" r="0.024533" fill="none" stroke="black"/>
<circle cx="2.237308" cy="-1.152988" r="0.027496" fill="none" stroke="black"/>
<circle cx="2.488872" cy="-0.920811" r="0.042539" fill="none" stroke="black"/>
<circle cx="2.332136" cy="-0.960868" r="0.016652" fill="none" stroke="black"/>
<circle cx="2.383359" cy="-1.051132" r="0.017966" fill="none" stroke="black"/>
<circle cx="2.547872" cy="-0.874855" r="0.032247" fill="none" stroke="black"/>
<circle cx="2.434832" cy="-0.913771" r="0.011957" fill="none" stroke="black"/>
<circle cx="2.476505" cy="-0.974565" r="0.012620" fill="none" stroke="black"/>
<circle cx="2.591525" cy="-0.837413" r="0.025262" fill="none" stroke="black"/>
<circle cx="2.624997" cy="-0.806484" r="0.020312" fill="none" stroke="black"/>
<circle cx="2.651409" cy="-0.780581" r="0.016681" fill="none" stroke="black"/>
<circle cx="2.672740" cy="-0.758613" r="0.013939" fill="none" stroke="black"/>
<circle cx="2.690304" cy="-0.739770" r="0.011820" fill="none" stroke="black"/>
<circle cx="2.142306" cy="-1.001478" r="0.011538" fill="none" stroke="black"/>
<circle cx="2.214078" cy="-1.186575" r="0.013342" fill="none" stroke="black"/>
<circle cx="2.275401" cy="-1.145190" r="0.011388" fill="none" stroke="black"/>
<circle cx="1.880526" cy="-1.011312" r="0.018344" fill="none" stroke="black"/>
<circle cx="1.981935" cy="-1.015426" r="0.015586" fill="none" stroke="black"/>
<circle cx="1.934893" cy="-1.088868" r="0.013549" fill="none" stroke="black"/>
<circle cx="1.934578" cy="-1.338154" r="0.023364" fill="none" stroke="black"/>
<circle cx="2.048693" cy="-1.283073" r="0.019067" fill="none" stroke="black"/>
<circle cx="1.962627" cy="-1.228912" r="0.015041" fill="none" stroke="black"/>
<circle cx="1.906067" cy="-1.362211" r="0.013939" fill="none" stroke="black"/>
<circle cx="1.468675" cy="-0.883832" r="0.031245" fill="none" stroke="black"/>
<circle cx="1.624416" cy="-0.954803" r="0.026017" fill="none" stroke="black"/>
<circle cx="1.504186" cy="-1.044446" r="0.024009" fill="none" stroke="black"/>
<circle cx="1.435450" cy="-0.847290" r="0.018144" fill="none" stroke="black"/>
<circle cx="1.414843" cy="-0.825492" r="0.011853" fill="none" stroke="black"/>
<circle cx="1.664230" cy="-0.956622" r="0.013838" fill="none" stroke="black"/>
<circle cx="1.494813" cy="-1.079598" r="0.012370" fill="none" stroke="black"/>
<circle cx="1.344958" cy="-1.499619" r="0.049280" fill="none" stroke="black"/>
<circle cx="1.598732" cy="-1.453510" r="0.037421" fill="none" stroke="black"/>
<circle cx="1.466054" cy="-1.306183" r="0.029128" fill="none" stroke="black"/>
<circle cx="1.271461" cy="-1.529774" r="0.030162" fill="none" stroke="black"/>
<circle cx="1.407629" cy="-1.521142" r="0.016985" fill="none" stroke="black"/>
<circle cx="1.360985" cy="-1.437327" r="0.015041" fill="none" stroke="black"/>
<circle cx="1.223437" cy="-1.545310" r="0.020312" fill="none" stroke="black"/>
<circle cx="1.189717" cy="-1.554331" r="0.014594" fill="none" stroke="black"/>
<circle cx="1.164779" cy="-1.560023" r="0.010985" fill="none" stroke="black"/>
<circle cx="1.656029" cy="-1.454173" r="0.019880" fill="none" stroke="black"/>
<circle cx="1.560385" cy="-1.488319" r="0.014369" fill="none" stroke="black"/>
<circle cx="1.573933" cy="-1.410812" r="0.011957" fill="none" stroke="black"/>
<circle cx="1.688090" cy="-1.451558" r="0.012287" fill="none" stroke="black"/>
<circle cx="1.467489" cy="-1.262912" r="0.014166" fill="none" stroke="black"/>
<circle cx="1.433901" cy="-1.330403" r="0.011126" fill="none" stroke="black"/>
<circle cx="-0.076603" cy="-1.131986" r="0.134575" fill="none" stroke="black"/>
<circle cx="0.468031" cy="-0.958311" r="0.066496" fill="none" stroke="black"/>
<circle cx="0.530348" cy="-1.429189" r="0.093930" fill="none" stroke="black"/>
<circle cx="-0.280085" cy="-1.048577" r="0.085339" fill="none" stroke="black"/>
<circle cx="0.068194" cy="-1.036584" r="0.038825" fill="none" stroke="black"/>
<circle cx="0.017044" cy="-1.287324" r="0.046807" fill="none" stroke="black"/>
<circle cx="-0.405403" cy="-0.977852" r="0.058558" fill="none" stroke="black"/>
<circle cx="-0.177579" cy="-1.009026" r="0.024533" fill="none" stroke="black"/>
<circle cx="-0.237308" cy="-1.152988" r="0.027496" fill="none" stroke="black"/>
<circle cx="-0.488872" cy="-0.920811" r="0.042539" fill="none" stroke="black"/>
<circle cx="-0.332136" cy="-0.960868" r="0.016652" fill="none" stroke="black"/>
<circle cx="-0.383359" cy="-1.051132" r="0.017966" fill="none" stroke="black"/>
<circle cx="-0.547872" cy="-0.874855" r="0.032247" fill="none" stroke="black"/>
<circle cx="-0.434832" cy="-0.913771" r="0.011957" fill="none" stroke="black"/>
<circle cx="-0.476505" cy="-0.974565" r="0.012620" fill="none" stroke="black"/>
<circle cx="-0.591525" cy="-0.837413" r="0.025262" fill="none" stroke="black"/>
<circle cx="-0.624997" cy="-0.806484" r="0.020312" fill="none" stroke="black"/>
<circle cx="-0.651409" cy="-0.780581" r="0.016681" fill="none" stroke="black"/>
<circle cx="-0.672740" cy="-0.758613" r="0.013939" fill="none" stroke="black"/>
<circle cx="-0.690304" cy="-0.739770" r="0.011820" fill="none" stroke="black"/>
<circle cx="-0.142306" cy="-1.001478" r="0.011538" fill="none" stroke="black"/>
<circle cx="-0.214078" cy="-1.186575" r="0.013342" fill="none" stroke="black"/>
<circle cx="-0.275401" cy="-1.145190" r="0.011388" fill="none" stroke="black"/>
<circle cx="0.119474" cy="-1.011312" r="0.018344" fill="none" stroke="black"/>
<circle cx="0.018065" cy="-1.015426" r="0.015586" fill="none" stroke="black"/>
<circle cx="0.065107" cy="-1.088868" r="0.013549" fill="none" stroke="black"/>
<circle cx="0.065422" cy="-1.338154" r="0.023364" fill="none" stroke="black"/>
<circle cx="-0.048693" cy="-1.283073" r="0.019067" fill="none" stroke="black"/>
<circle cx="0.037373" cy="-1.228912" r="0.015041" fill="none" stroke="black"/>
<circle cx="0.093933" cy="-1.362211" r="0.013939" fill="none" stroke="black"/>
<circle cx="0.531325" cy="-0.883832" r="0.031245" fill="none" stroke="black"/>
<circle cx="0.375584" cy="-0.954803" r="0.026017" fill="none" stroke="black"/>
<circle cx="0.495814" cy="-1.044446" r="0.024009" fill="none" stroke="black"/>
<circle cx="0.564550" cy="-0.847290" r="0.018144" fill="none" stroke="black"/>
<circle cx="0.585157" cy="-0.825492" r="0.011853" fill="none" stroke="black"/>
<circle cx="0.335770" cy="-0.956622" r="0.013838" fill="none" stroke="black"/>
<circle cx="0.505187" cy="-1.079598" r="0.012370" fill="none" stroke="black"/>
<circle cx="0.655042" cy="-1.499619" r="0.049280" fill="none" stroke="black"/>
<circle cx="0.401268" cy="-1.453510" r="0.037421" fill="none" stroke="black"/>
<circle cx="0.533946" cy="-1.306183" r="0.029128" fill="none" stroke="black"/>
<circle cx="0.728539" cy="-1.529774" r="0.030162" fill="none" stroke="black"/>
<circle cx="0.592371" cy="-1.521142" r="0.016985" fill="none" stroke="black"/>
<circle cx="0.639015" cy="-1.437327" r="0.015041" fill="none" stroke="black"/>
<circle cx="0.776563" cy="-1.545310" r="0.020312" fill="none" stroke="black"/>
<circle cx="0.810283" cy="-1.554331" r="0.014594" fill="none" stroke="black"/>
<circle cx="0.835221" cy="-1.560023" r="0.010985" fill="none" stroke="black"/>
<circle cx="0.343971" cy="-1.454173" r="0.019880" fill="none" stroke="black"/>
<circle cx="0.439615" cy="-1.488319" r="0.014369" fill="none" stroke="black"/>
<circle cx="0.426067" cy="-1.410812" r="0.011957" fill="none" stroke="black"/>
<circle cx="0.311910" cy="-1.451558" r="0.012287" fill="none" stroke="black"/>
<circle cx="0.532511" cy="-1.262912" r="0.014166" fill="none" stroke="black"/>
<circle cx="0.566099" cy="-1.330403" r="0.011126" fill="none" stroke="black"/>
</g>
</svg>
